<svg xmlns="http://www.w3.org/2000/svg" viewBox="0 0 48 48">
  <path fill="#1677FF" d="M24 4C12.9 4 4 12.9 4 24s8.9 20 20 20 20-8.9 20-20S35.1 4 24 4z"/>
  <path d="M36 30c-4.4 2-8.5 3.2-12 3.2-1.5 0-3-.2-4.4-.7l1.8-4.5c1 .2 2.1.4 3.4.4 2.1 0 4-.4 5.6-1.3 1.6-.9 2.4-2.2 2.4-4 0-1.4-.8-2.4-2.3-3.1-1.5-.7-3.4-1.1-5.8-1.3l-2.5-.2c-.6-.1-1-.4-1-.9v-1.6c0-.6.3-1 .8-1.1l3.2-.5c1.3-.2 2.4-.4 3.3-.8.9-.4 1.3-1 1.3-1.8 0-1.2-1-2.1-2.9-2.1-1.5 0-3 .3-4.5.9l-1.7.8-1.7-4.3h5.7c.4 0 .7-.3.7-.7v-1.6c0-.4-.3-.7-.7-.7H16c-.4 0-.7.3-.7.7v1.6c0 .4.3.7.7.7h2.2l-3.1 7.7c-.1.3-.1.5 0 .8l3.5 8.7c.1.2.3.4.5.4h1.9c.2 0 .4-.1.5-.3l1.9-4.7c1.4.4 2.9.7 4.4.7 2.7 0 5.3-.9 7.6-2.5.2-.2.2-.6-.1-.8z" fill="#fff"/>
</svg>